<svg xmlns="http://www.w3.org/2000/svg" viewBox="0 0 95 20" aria-hidden="true"><g clip-path="url(#clip0_179_7031)"><path d="M18.976 3.36029C18.7418 3.02832 18.4521 2.73867 18.1201 2.50439C17.4818 1.59973 16.4308 1.00439 15.2457 1.00439H5.86419C3.929 1.00439 2.34567 2.58774 2.34567 4.52291V13.9045C2.34567 15.0895 2.94099 16.1405 3.84565 16.7789C4.07991 17.1109 4.36956 17.4005 4.70153 17.6348C5.33991 18.5395 6.39095 19.1348 7.57597 19.1348H16.9575C18.8927 19.1348 20.476 17.5514 20.476 15.6162V6.23471C20.476 5.04969 19.8807 3.99866 18.976 3.36029Z" fill="black" stroke="black" stroke-width="1.46605" stroke-miterlimit="10"></path><path d="M15.2457 1.00439H5.86419C3.92097 1.00439 2.34567 2.57969 2.34567 4.52291V13.9045C2.34567 15.8477 3.92097 17.423 5.86419 17.423H15.2457C17.189 17.423 18.7642 15.8477 18.7642 13.9045V4.52291C18.7642 2.57969 17.189 1.00439 15.2457 1.00439Z" fill="#08E8FF" stroke="black" stroke-width="1.46605" stroke-miterlimit="10"></path><path d="M32.8849 11.8762C32.8849 11.5349 32.7178 11.3147 32.3835 11.2155L28.9567 10.1416C28.533 10.0092 28.1765 9.78069 27.8868 9.45596C27.597 9.13098 27.4522 8.69876 27.4522 8.15905V8.07618C27.4522 6.42416 28.288 5.59814 29.9596 5.59814H32.0491C33.7207 5.59814 34.5565 6.42817 34.5565 8.08798V8.25399C34.5565 8.53075 34.417 8.66887 34.1386 8.66887H33.1357C32.857 8.66887 32.7178 8.53175 32.7178 8.25725V8.17488C32.7178 7.57163 32.4111 7.26976 31.7983 7.26976H30.0432C29.8314 7.26976 29.653 7.34158 29.5083 7.48473C29.3634 7.62789 29.2909 7.80419 29.2909 8.01339C29.2909 8.35469 29.4582 8.57495 29.7925 8.67415L33.2193 9.74779C33.6426 9.88014 33.9991 10.1089 34.2891 10.4337C34.5788 10.7586 34.7237 11.1909 34.7237 11.7306V11.8958C34.7237 13.5481 33.8879 14.3741 32.2162 14.3741H29.7925C28.1209 14.3741 27.285 13.5441 27.285 11.8838V11.718C27.285 11.4415 27.4243 11.3029 27.703 11.3029H28.7059C28.9843 11.3029 29.1238 11.4405 29.1238 11.7147V11.7969C29.1238 12.4009 29.4302 12.7025 30.0432 12.7025H32.0491C32.3054 12.7025 32.5088 12.6282 32.6593 12.4795C32.8097 12.3308 32.8849 12.1296 32.8849 11.8762Z" fill="#08E8FF"></path><path d="M44.419 13.8725C44.419 14.1512 44.2794 14.2904 44.0011 14.2904H42.9981C42.7195 14.2904 42.5802 14.1512 42.5802 13.8725V8.52338C42.5802 8.18911 42.4825 7.9244 42.2876 7.72926C42.0927 7.53438 41.828 7.43668 41.4937 7.43668H38.652V13.8725C38.652 14.1512 38.5124 14.2904 38.2341 14.2904H37.2311C36.9523 14.2904 36.8132 14.1512 36.8132 13.8725V3.00701C36.8132 2.7285 36.9523 2.58911 37.2311 2.58911H38.2341C38.5124 2.58911 38.652 2.7285 38.652 3.00701V5.76507H41.7444C43.5272 5.76507 44.419 6.65688 44.419 8.43975V13.8725Z" fill="#08E8FF"></path><path d="M48.5978 4.01008C48.5978 4.2886 48.4582 4.42798 48.1799 4.42798H47.1769C46.8983 4.42798 46.759 4.2886 46.759 4.01008V3.00701C46.759 2.7285 46.8983 2.58911 47.1769 2.58911H48.1799C48.4582 2.58911 48.5978 2.7285 48.5978 3.00701V4.01008ZM48.5978 13.8725C48.5978 14.1512 48.4582 14.2904 48.1799 14.2904H47.1769C46.8983 14.2904 46.759 14.1512 46.759 13.8725V6.18297C46.759 5.90471 46.8983 5.76507 47.1769 5.76507H48.1799C48.4582 5.76507 48.5978 5.90471 48.5978 6.18297V13.8725Z" fill="#08E8FF"></path><path d="M56.6216 11.7831C56.6216 11.5045 56.7608 11.3651 57.0395 11.3651H58.0423C58.3209 11.3651 58.4602 11.5045 58.4602 11.7831C58.4602 12.6189 58.2347 13.2598 57.7834 13.7053C57.3319 14.1513 56.6658 14.3741 55.7858 14.3741H53.529C51.7459 14.3741 50.8544 13.4911 50.8544 11.7248V8.24746C50.8544 6.48116 51.7459 5.59814 53.529 5.59814H55.7858C57.5687 5.59814 58.4602 6.47514 58.4602 8.22887V10.2019C58.4602 10.4761 58.3209 10.613 58.0423 10.613H52.6932V11.6158C52.6932 11.9503 52.7907 12.215 52.9858 12.4099C53.1807 12.605 53.4454 12.7025 53.7797 12.7025H55.7022C56.315 12.7025 56.6216 12.3961 56.6216 11.7831ZM52.6932 9.025H56.6216V8.30698C56.6216 7.98777 56.5239 7.73512 56.329 7.54903C56.1339 7.36293 55.8692 7.26976 55.5349 7.26976H53.7797C53.4454 7.26976 53.1807 7.36293 52.9858 7.54903C52.7907 7.73512 52.6932 7.98777 52.6932 8.30698V9.025Z" fill="#08E8FF"></path><path d="M62.6393 13.8725C62.6393 14.1512 62.4996 14.2904 62.2214 14.2904H61.2183C60.9395 14.2904 60.8004 14.1512 60.8004 13.8725V3.00701C60.8004 2.7285 60.9395 2.58911 61.2183 2.58911H62.2214C62.4996 2.58911 62.6393 2.7285 62.6393 3.00701V13.8725Z" fill="#08E8FF"></path><path d="M70.7465 5.68169V2.99596C70.7465 2.72498 70.8856 2.58911 71.1644 2.58911H72.1672C72.4457 2.58911 72.5851 2.7285 72.5851 3.00701V13.8725C72.5851 14.1512 72.4457 14.2904 72.1672 14.2904H71.1644C70.8856 14.2904 70.7465 14.1447 70.7465 13.8529V13.4154H70.6628C70.5734 13.5967 70.4509 13.7562 70.2949 13.8946C70.1613 14.0119 69.9885 14.1211 69.7768 14.2223C69.5651 14.3233 69.3031 14.374 68.9912 14.374H67.6539C65.8708 14.374 64.9792 13.4825 64.9792 11.6993V8.35612C64.9792 6.57325 65.8708 5.68169 67.6539 5.68169H70.7465ZM70.7465 7.3533H67.9045C67.5703 7.3533 67.3055 7.451 67.1107 7.64563C66.9155 7.84077 66.8181 8.10548 66.8181 8.43975V11.6157C66.8181 11.9502 66.9155 12.2149 67.1107 12.4098C67.3055 12.605 67.5703 12.7024 67.9045 12.7024H69.3255C69.7489 12.7024 70.0915 12.5716 70.3534 12.3096C70.6154 12.0479 70.7465 11.7051 70.7465 11.2814V7.3533Z" fill="#08E8FF"></path><path d="M76.8475 4.01008C76.8475 4.2886 76.7078 4.42798 76.4296 4.42798H75.4265C75.148 4.42798 75.0086 4.2886 75.0086 4.01008V3.00701C75.0086 2.7285 75.148 2.58911 75.4265 2.58911H76.4296C76.7078 2.58911 76.8475 2.7285 76.8475 3.00701V4.01008ZM76.8475 13.8725C76.8475 14.1512 76.7078 14.2904 76.4296 14.2904H75.4265C75.148 14.2904 75.0086 14.1512 75.0086 13.8725V6.18297C75.0086 5.90471 75.148 5.76507 75.4265 5.76507H76.4296C76.7078 5.76507 76.8475 5.90471 76.8475 6.18297V13.8725Z" fill="#08E8FF"></path><path d="M78.9369 7.93821C78.6581 7.93821 78.519 7.79908 78.519 7.52031V6.68451C78.519 6.40624 78.6581 6.2666 78.9369 6.2666H79.9397V5.09653C79.9397 3.42492 80.7755 2.58911 82.4471 2.58911H83.6174C83.8957 2.58911 84.0354 2.7285 84.0354 3.00701V3.92645C84.0354 4.20497 83.8957 4.34435 83.6174 4.34435H82.698C82.085 4.34435 81.7786 4.651 81.7786 5.26379V6.2666H83.1995C83.4778 6.2666 83.6174 6.40624 83.6174 6.68451V7.52031C83.6174 7.79908 83.4778 7.93821 83.1995 7.93821H81.7786V13.8725C81.7786 14.1512 81.6392 14.2904 81.3607 14.2904H80.3576C80.0791 14.2904 79.9397 14.1512 79.9397 13.8725V7.93821H78.9369Z" fill="#08E8FF"></path><path d="M90.4373 6.26654C90.5265 5.98827 90.6938 5.84863 90.9389 5.84863H92.2762C92.5547 5.84863 92.6384 5.98827 92.5269 6.26654L89.2673 14.6246C88.8883 15.5943 88.437 16.3238 87.9133 16.8146C87.3895 17.3048 86.7264 17.5499 85.924 17.5499H85.5061C85.2276 17.5499 85.0882 17.4105 85.0882 17.132V16.2126C85.0882 15.934 85.2276 15.7947 85.5061 15.7947H85.924C86.5815 15.7947 87.0831 15.3213 87.4286 14.3742L84.2524 6.26654C84.1409 5.98827 84.2245 5.84863 84.5033 5.84863H85.8404C86.0855 5.84863 86.2528 5.98827 86.3419 6.26654L88.3478 11.6995H88.4315L90.4373 6.26654Z" fill="#08E8FF"></path><path d="M13.39 6.42949C13.383 6.41988 13.3755 6.41067 13.3675 6.40191C13.3588 6.394 13.3497 6.38653 13.3403 6.37954C11.7963 4.85656 9.31521 4.85656 7.77124 6.37954C7.7618 6.38653 7.75272 6.394 7.74403 6.40191C7.736 6.41067 7.72847 6.41988 7.72148 6.42949C6.19805 7.97343 6.19805 10.455 7.72148 11.9989C7.72827 12.0082 7.73555 12.0171 7.74328 12.0255C7.75165 12.0332 7.76042 12.0403 7.76956 12.047C9.31367 13.5714 11.7963 13.5714 13.3405 12.047C13.3496 12.0403 13.3584 12.0332 13.3667 12.0255C13.3745 12.0171 13.3818 12.0082 13.3885 11.9989C14.912 10.455 14.912 7.97343 13.3885 6.42949H13.39ZM13.1242 11.321L12.5233 10.7201C12.7875 10.3766 12.9565 9.96958 13.0133 9.54001H13.8633C13.7993 10.1939 13.542 10.8139 13.1242 11.321ZM7.24823 9.54001H8.09817C8.15498 9.96958 8.324 10.3766 8.5882 10.7201L7.98727 11.321C7.56949 10.8139 7.31221 10.1939 7.24823 9.54001ZM7.98727 7.10647L8.5882 7.70759C8.324 8.05104 8.15498 8.45806 8.09817 8.88763H7.24822C7.31224 8.2337 7.56952 7.61363 7.98727 7.10647ZM10.5558 11.0429C9.54549 11.043 8.72642 10.2241 8.72632 9.21382C8.72621 8.20355 9.54511 7.38448 10.5554 7.38438C11.5657 7.38428 12.3847 8.20318 12.3848 9.21345V9.21382C12.3837 10.2235 11.5655 11.0418 10.5558 11.0429ZM12.062 7.24626C11.7185 6.98207 11.3115 6.81305 10.8819 6.75624V5.9061C11.5359 5.97027 12.1559 6.2276 12.6631 6.64533L12.062 7.24626ZM10.2296 6.75624C9.79999 6.81305 9.39297 6.98207 9.04952 7.24626L8.4484 6.64534C8.9556 6.2276 9.57564 5.97027 10.2296 5.9061V6.75624ZM9.04933 11.1814C9.39292 11.4455 9.79997 11.6145 10.2296 11.6714V12.5213C9.57565 12.4573 8.9556 12.2 8.4484 11.7823L9.04933 11.1814ZM10.8819 11.6714C11.3115 11.6145 11.7186 11.4455 12.0622 11.1814L12.6631 11.7823C12.1559 12.2 11.5359 12.4573 10.8819 12.5213V11.6714ZM13.0133 8.88763C12.9565 8.45806 12.7875 8.05104 12.5233 7.70758L13.1242 7.10647C13.542 7.61363 13.7993 8.2337 13.8633 8.88763H13.0133Z" fill="black"></path><path d="M10.5557 8.42798C10.1217 8.42798 9.76991 8.77981 9.76991 9.21381C9.76991 9.64781 10.1217 9.99964 10.5557 9.99964C10.9897 9.99964 11.3416 9.64781 11.3416 9.21381C11.3412 8.77998 10.9896 8.42839 10.5557 8.42798Z" fill="black"></path></g><defs><clipPath id="clip0_179_7031"><rect width="95" height="19.9383" fill="white" transform="translate(0 0.124756)"></rect></clipPath></defs></svg>
